<svg width="960" height="540" viewBox="0 0 960 540" xmlns="http://www.w3.org/2000/svg">

  <!-- Background -->
  <rect width="960" height="540" fill="#0b1020"/>

  <!-- Title -->
  <text x="480" y="60" fill="#e8eaf6" font-size="32" font-family="Segoe UI" text-anchor="middle">
    RTT/1 — Snapshot Diagnostics
  </text>

  <!-- Subtitle -->
  <text x="480" y="95" fill="#b0bec5" font-size="16" font-family="Segoe UI" text-anchor="middle">
    mock-snapshots/ · rtt=1 · coherence=declared · drift=bounded
  </text>

  <!-- Legend -->
  <rect x="60" y="120" width="220" height="120" rx="10" fill="#1c2331" stroke="#546e7a" stroke-width="1.5"/>
  <text x="80" y="145" fill="#e8eaf6" font-size="14" font-family="Segoe UI">
    Legend
  </text>
  <circle cx="80" cy="170" r="6" fill="#2e7d32"/>
  <text x="95" y="174" fill="#c8e6c9" font-size="12" font-family="Segoe UI">
    ✔ Healthy
  </text>
  <circle cx="80" cy="195" r="6" fill="#f9a825"/>
  <text x="95" y="199" fill="#ffe082" font-size="12" font-family="Segoe UI">
    ⚠ Warning
  </text>
  <circle cx="80" cy="220" r="6" fill="#c62828"/>
  <text x="95" y="224" fill="#ffcdd2" font-size="12" font-family="Segoe UI">
    ✖ Error
  </text>

  <!-- Global status -->
  <rect x="680" y="120" width="220" height="120" rx="10" fill="#1c2331" stroke="#546e7a" stroke-width="1.5"/>
  <text x="700" y="145" fill="#e8eaf6" font-size="14" font-family="Segoe UI">
    Suite Status
  </text>
  <text x="700" y="170" fill="#c8e6c9" font-size="13" font-family="Segoe UI">
    ✔ Structurally healthy
  </text>
  <text x="700" y="190" fill="#b0bec5" font-size="12" font-family="Segoe UI">
    Coverage: 100%
  </text>
  <text x="700" y="210" fill="#b0bec5" font-size="12" font-family="Segoe UI">
    Drift: bounded
  </text>

  <!-- Layer diagnostic nodes -->

  <!-- Clarity Surface -->
  <rect x="120" y="280" width="180" height="80" rx="10" fill="#283593" stroke="#c5cae9" stroke-width="1.5"/>
  <circle cx="140" cy="300" r="8" fill="#2e7d32"/>
  <text x="160" y="305" fill="#e8eaf6" font-size="14" font-family="Segoe UI">
    clarity_surface
  </text>
  <text x="140" y="325" fill="#c5cae9" font-size="11" font-family="Segoe UI">
    ✔ keys complete
  </text>
  <text x="140" y="340" fill="#c5cae9" font-size="11" font-family="Segoe UI">
    ✔ arrays valid
  </text>

  <!-- Load-Bearing -->
  <rect x="380" y="280" width="180" height="80" rx="10" fill="#2e7d32" stroke="#c8e6c9" stroke-width="1.5"/>
  <circle cx="400" cy="300" r="8" fill="#2e7d32"/>
  <text x="420" y="305" fill="#e8f5e9" font-size="14" font-family="Segoe UI">
    load_bearing
  </text>
  <text x="400" y="325" fill="#c8e6c9" font-size="11" font-family="Segoe UI">
    ✔ anchors coherent
  </text>
  <text x="400" y="340" fill="#c8e6c9" font-size="11" font-family="Segoe UI">
    ✔ collapse map valid
  </text>

  <!-- Contradiction Scan -->
  <rect x="640" y="280" width="180" height="80" rx="10" fill="#c62828" stroke="#ffcdd2" stroke-width="1.5"/>
  <circle cx="660" cy="300" r="8" fill="#2e7d32"/>
  <text x="680" y="305" fill="#ffebee" font-size="14" font-family="Segoe UI">
    contradiction_scan
  </text>
  <text x="660" y="325" fill="#ffcdd2" font-size="11" font-family="Segoe UI">
    ✔ geometry complete
  </text>
  <text x="660" y="340" fill="#ffcdd2" font-size="11" font-family="Segoe UI">
    ✔ no orphan anchors
  </text>

  <!-- Structural Critique -->
  <rect x="220" y="380" width="180" height="80" rx="10" fill="#4b0082" stroke="#d1c4e9" stroke-width="1.5"/>
  <circle cx="240" cy="400" r="8" fill="#2e7d32"/>
  <text x="260" y="405" fill="#f3e5f5" font-size="14" font-family="Segoe UI">
    structural_critique
  </text>
  <text x="240" y="425" fill="#d1c4e9" font-size="11" font-family="Segoe UI">
    ✔ stability present
  </text>
  <text x="240" y="440" fill="#d1c4e9" font-size="11" font-family="Segoe UI">
    ✔ shape aligned
  </text>

  <!-- Diagnostic Surface -->
  <rect x="520" y="380" width="180" height="80" rx="10" fill="#1c2331" stroke="#b0bec5" stroke-width="1.5"/>
  <circle cx="540" cy="400" r="8" fill="#2e7d32"/>
  <text x="560" y="405" fill="#e8eaf6" font-size="14" font-family="Segoe UI">
    diagnostic_surface
  </text>
  <text x="540" y="425" fill="#b0bec5" font-size="11" font-family="Segoe UI">
    ✔ summary present
  </text>

  <!-- Connecting lines -->
  <line x1="300" y1="320" x2="380" y2="320" stroke="#546e7a" stroke-width="1.5"/>
  <line x1="560" y1="320" x2="640" y2="320" stroke="#546e7a" stroke-width="1.5"/>
  <line x1="210" y1="420" x2="220" y2="420" stroke="#546e7a" stroke-width="1.5"/>
  <line x1="400" y1="420" x2="520" y2="420" stroke="#546e7a" stroke-width="1.5"/>

  <!-- Footer -->
  <text x="480" y="510" fill="#78909c" font-size="13" font-family="Segoe UI" text-anchor="middle">
    TriadicFrameworks · RTT/1 Snapshot Suite · diagnostics: mock-snapshots/diagnostics.md
  </text>

</svg>

